<svg width="9" height="13" fill="none" xmlns="http://www.w3.org/2000/svg"><path d="M.016 2.99c-.05-.693.105-1.376.516-1.926.356-.497.819-.77 1.377-.928.47-.139.778.031.914.55.194.775.47 1.55.57 2.367.032.36-.202.868-.455 1.13-.636.62-.504 1.072-.022 2.012.15.303.388.827.851 1.52.483.699.738 1.074 1.358.756.689-.344 1.19-.123 1.71.432.352.4.74.745 1.092 1.146.509.595.486 1.006.088 1.427-.717.775-1.9 1.031-2.78.512a5.65 5.65 0 01-1.357-1.084C2.178 8.983.953 6.75.215 4.227a6.312 6.312 0 01-.2-1.237z" fill="#fff"/></svg>